{"title":"Arrow S04E09 Dark Waters 1080P WEB-DL DD5 1 H 264","uid":12957169,"size":1777735737,"categoryP":"video","categoryS":"hd___tv_shows","magnet":"?xt=urn:btih:8600971a288f6e7ed42bbd4cde63bca0b1b19364&amp;dn=Arrow+S04E09+Dark+Waters+1080P+WEB-DL+DD5+1+H+264&amp;tr=udp%3A%2F%2Ftracker.leechers-paradise.org%3A6969&amp;tr=udp%3A%2F%2Fzer0day.ch%3A1337&amp;tr=udp%3A%2F%2Fopen.demonii.com%3A1337&amp;tr=udp%3A%2F%2Ftracker.coppersurfer.tk%3A6969&amp;tr=udp%3A%2F%2Fexodus.desync.com%3A6969","seeders":1,"leechers":1,"uploader":"jmanwf","files":2,"time":1449799628,"description":"After the city is attacked again, Oliver makes a bold move against HIVE. Malcolm checks in on Thea and leaves her with a warning. Things take a horrible turn when Damien Darhk retaliates in a brutal manner at Oliver's mayoral holiday party.\r\n\r\n\r\nVideo\r\nID : 2\r\nFormat : AVC\r\nFormat/Info : Advanced Video Codec\r\nFormat profile :   \r\nFormat settings, CABAC : Yes\r\nFormat settings, ReFrames : 4 frames\r\nCodec ID : avc1\r\nCodec ID/Info : Advanced Video Coding\r\nDuration : 42mn 26s\r\nBit rate : 5 071 Kbps\r\nWidth : 1 916 pixels\r\nHeight : 1 076 pixels\r\nDisplay aspect ratio : 16:9\r\nFrame rate mode : Constant\r\nFrame rate : 23.976 fps\r\nColor space : YUV\r\nChroma subsampling : 4:2:0\r\nBit depth : 8 bits\r\nScan type : Progressive\r\nBits/(Pixel*Frame) : 0.103\r\nStream size : 1.50 GiB (91%)\r\nLanguage : English\r\nEncoded date : UTC 2015-12-10 09:46:44\r\nTagged date : UTC 2015-12-10 09:49:40\r\nColor range : Limited\r\nColor primaries : BT.709\r\nTransfer characteristics : BT.709\r\nMatrix coefficients : BT.709\r\n\r\nAudio #1\r\nID : 1\r\nFormat : AAC\r\nFormat/Info : Advanced Audio Codec\r\nFormat profile : LC\r\nCodec ID : 40\r\nDuration : 42mn 26s\r\nBit rate mode : Variable\r\nBit rate : 125 Kbps\r\nMaximum bit rate : 198 Kbps\r\nChannel(s) : 2 channels\r\nChannel positions : Front: L R\r\nSampling rate : 48.0 KHz\r\nCompression mode : Lossy\r\nStream size : 38.0 MiB (2%)\r\nLanguage : English\r\nEncoded date : UTC 2015-12-10 09:46:43\r\nTagged date : UTC 2015-12-10 09:49:40\r\n\r\nAudio #2\r\nID : 3\r\nFormat : AC-3\r\nFormat/Info : Audio Coding 3\r\nMode extension : CM (complete main)\r\nFormat settings, Endianness : Big\r\nCodec ID : ac-3\r\nDuration : 42mn 26s\r\nBit rate mode : Constant\r\nBit rate : 384 Kbps\r\nChannel(s) : 6 channels\r\nChannel positions : Front: L C R, Side: L R, LFE\r\nSampling rate : 48.0 KHz\r\nBit depth : 16 bits\r\nCompression mode : Lossy\r\nStream size : 117 MiB (7%)\r\nLanguage : English\r\nEncoded date : UTC 2015-12-10 09:46:44\r\nTagged date : UTC 2015-12-10 09:49:40\r\n\r\nText\r\nID : 4-CC1\r\nFormat : EIA-608\r\nMuxing mode : Final Cut\r\nCodec ID : c608\r\nDuration : 41mn 53s\r\nBit rate mode : Constant\r\nStream size : 0.00 Byte (0%)\r\nLanguage : English\r\nEncoded date : UTC 2015-12-10 09:46:44\r\nTagged date : UTC 2015-12-10 09:46:51\r\n\r\n\r\n \nhttps://itunes.apple.com/us/tv-season/arrow-season-4/id1027608805","torrent":{"xt":"urn:btih:8600971a288f6e7ed42bbd4cde63bca0b1b19364","amp;dn":"Arrow+S04E09+Dark+Waters+1080P+WEB-DL+DD5+1+H+264","amp;tr":["udp%3A%2F%2Ftracker.leechers-paradise.org%3A6969","udp%3A%2F%2Fzer0day.ch%3A1337","udp%3A%2F%2Fopen.demonii.com%3A1337","udp%3A%2F%2Ftracker.coppersurfer.tk%3A6969","udp%3A%2F%2Fexodus.desync.com%3A6969"],"infoHash":"8600971a288f6e7ed42bbd4cde63bca0b1b19364","infoHashBuffer":{"type":"Buffer","data":[134,0,151,26,40,143,110,126,212,43,189,76,222,99,188,160,177,177,147,100]},"announce":[],"urlList":[]}}